<svg width="27" height="35" viewBox="0 0 27 35" fill="none" xmlns="http://www.w3.org/2000/svg">
<g filter="url(#filter0_d_1635_15067)">
<rect x="4" y="6" width="21" height="21" rx="3" fill="#FF6347"/>
</g>
<path d="M1.81797 29.4189C1.72275 29.4189 1.61289 29.353 1.61289 29.2505C1.61289 28.9062 1.61289 28.5547 1.62021 28.2104L1.62754 27.0825L1.64219 26.5186C1.64219 25.5591 1.64951 26.0059 1.64951 25.1196C1.66416 24.563 1.65684 24.2554 1.66416 23.7207V21.4868C1.66416 20.0073 1.65684 18.5205 1.62021 17.041C1.62021 16.8579 1.62021 16.6748 1.61289 16.4917C1.59092 15.752 1.59824 15.5322 1.56894 14.8218C1.47373 12.0532 1.43711 11.1963 1.26133 8.44238L1.23936 8.46436C1.20273 8.5083 1.17344 8.52295 1.14414 8.52295C1.06357 8.52295 1.01963 8.37646 0.983007 8.37646L0.968359 8.38379L0.909765 8.25928C0.997656 8.14941 1.13682 8.12744 1.23203 8.03955V7.97363C1.11484 8.09082 0.873144 8.0835 0.770605 8.20801L0.631445 8.0542C0.72666 7.95166 0.895117 7.94434 0.990332 7.83447C1.06357 7.75391 1.12949 7.66602 1.20273 7.57812C1.20273 7.54883 1.20273 7.51221 1.19541 7.48291L0.931738 7.79053C0.843847 7.89307 0.770605 7.92969 0.704687 7.92969C0.572851 7.92969 0.484961 7.79785 0.419043 7.79785C0.404394 7.79785 0.39707 7.80518 0.382421 7.81982L0.162695 7.72461C0.243261 7.51953 0.382421 7.33643 0.514257 7.16797C0.72666 6.91162 0.997656 6.70654 1.34189 6.56738C1.51768 6.49414 1.70811 6.44287 1.92783 6.40625C1.98643 6.40625 2.03769 6.3916 2.09629 6.3916C2.15488 6.38428 2.21348 6.37695 2.27939 6.37695H2.45518C2.48447 6.37695 2.74082 6.58936 2.74082 6.61865C2.75547 6.68457 2.76279 6.74316 2.77744 6.79443C2.78477 6.86035 2.79209 6.91895 2.79209 6.97754L2.80674 7.146C2.80674 7.27051 2.79941 7.3877 2.79209 7.49756L2.82139 7.95166C2.83603 8.25195 2.84336 8.54492 2.85068 8.83789L2.87266 9.61426L2.93125 9.57031L2.9166 9.36523C2.90195 9.021 2.89463 8.75732 2.89463 8.55225C2.89463 8.13477 2.93125 7.95898 2.97519 7.87109C3.04111 7.73193 3.13633 7.8125 3.13633 7.51953L3.11436 7.21924L3.26816 6.50879C3.39268 7.35107 3.49521 8.21533 3.57578 9.09424L3.72227 8.98438C4.51328 8.39111 5.31162 7.80518 6.13926 7.21924C6.35166 7.07275 6.55674 6.91895 6.76914 6.77979L7.421 6.34033L7.66269 6.18652C7.56016 5.95215 7.45762 5.71777 7.36973 5.4834L7.3624 5.43945C7.3624 5.34424 7.45762 5.22705 7.61143 5.13184L7.88975 5.74707C7.92637 5.82764 7.96299 5.90088 8.00693 5.97412L8.0582 5.9375L7.94834 5.71777L7.67002 5.10254C7.69199 5.08789 7.8751 5.08789 7.90439 5.07324L8.17539 5.46875C8.21934 5.56396 8.25596 5.62988 8.28525 5.67383L8.33652 5.76904C8.36582 5.74707 8.39512 5.73242 8.42441 5.71777L8.28525 5.44678C8.13877 5.12451 8.09482 4.96338 8.09482 4.89746C8.09482 4.86084 8.10215 4.84619 8.12412 4.84619L8.16074 4.85352C8.21201 4.87549 8.27793 4.92676 8.30723 4.92676C8.31455 4.92676 8.32187 4.91943 8.32187 4.91211C8.32187 4.89746 8.31455 4.86816 8.29258 4.82422L8.51963 5.02197C8.84922 5.74707 9.00303 6.27441 9.42051 6.96289C9.68418 7.3877 9.9625 7.79785 10.2555 8.20801C10.5045 8.55225 10.4459 8.49365 10.7022 8.80127C10.8561 8.9917 10.922 9.10889 10.9439 9.10889C10.9439 9.10156 10.9366 9.09424 10.922 9.07227C10.7535 8.84521 10.7682 8.85254 10.5997 8.64746C10.1383 7.95166 9.94053 7.73926 9.46445 6.93359C9.35459 6.76514 9.27402 6.58936 9.19346 6.40625C9.11289 6.22314 9.03232 6.04004 8.96641 5.85693L8.76865 5.30029C8.70273 5.11719 8.62949 4.93408 8.54893 4.75098L8.79062 4.78027L8.97373 5.23438C9.03232 5.38086 9.08359 5.52734 9.14219 5.6665C9.24473 5.95947 9.37656 6.23779 9.54502 6.53809C10.0431 7.3877 10.607 8.19336 11.2223 8.9624C11.5299 9.35059 11.8448 9.73145 12.1744 10.0977L12.4161 10.376C12.6505 10.6396 12.6505 10.6543 12.8995 10.9033L12.9361 10.9326L12.9068 10.896L12.6798 10.6396L12.1964 10.0757C11.8814 9.70215 11.5665 9.32129 11.2662 8.93311C10.6656 8.14941 10.1017 7.34375 9.60361 6.50879C9.47178 6.26709 9.36924 6.06934 9.28867 5.9082C9.21543 5.73975 9.16416 5.60791 9.13486 5.50537C9.09824 5.38818 9.08359 5.30762 9.08359 5.2417C9.08359 5.19775 9.09092 5.16113 9.10557 5.13184C9.14219 5.05127 9.20811 5.04395 9.20811 4.95605C9.20811 4.91211 9.19346 4.85352 9.14951 4.75098L9.21543 4.34814C9.66221 5.2124 10.1896 6.12793 10.7389 6.94824L11.0538 7.43164L11.3834 7.90771C11.8595 8.59619 11.669 8.30322 12.233 9.09424L12.7604 9.80469L13.4708 10.7642C13.9469 11.4087 14.4229 12.0679 14.8917 12.7417C15.0016 12.9102 15.1187 13.0786 15.2359 13.2471C15.3458 13.4229 15.463 13.5913 15.5729 13.7744C15.6754 13.9355 15.7779 14.0967 15.8731 14.2651L15.8805 14.2944C15.8805 14.3823 15.7267 14.5361 15.6388 14.5361L15.6095 14.5288L15.1114 14.2358L14.5914 13.8989L14.2545 13.6646C14.1812 13.7451 14.108 13.8257 14.0421 13.9282C13.9469 14.0527 13.8517 14.2065 13.7564 14.375C13.6612 14.5435 13.566 14.7266 13.4708 14.9243C13.3609 15.1221 13.2584 15.3271 13.1632 15.5176C12.526 16.7407 11.8375 17.9419 11.0758 19.0991C10.9659 19.2676 10.8487 19.436 10.7315 19.6045C10.8121 19.6265 10.8634 19.7803 10.8634 19.978L10.4972 19.9487L10.4532 20.0073L10.8634 20.0513C10.8634 20.0732 10.7901 20.2344 10.7901 20.2637L10.4093 20.3149C10.336 20.3076 10.2774 20.3076 10.2335 20.3076L10.1676 20.4028L10.38 20.4248C10.7535 20.4614 10.8561 20.5054 10.8561 20.5566C10.8561 20.6079 10.7242 20.6665 10.7242 20.6958C10.7242 20.7104 10.7462 20.7178 10.8048 20.7251L10.5704 20.8276C10.3287 20.8057 10.1236 20.769 9.91855 20.7324L9.85996 20.813C10.1529 20.8862 10.4459 20.9595 10.7535 20.9888L10.6363 21.1792C10.2994 21.1499 10.0064 21.0767 9.70615 21.0107L9.67686 21.0474L9.96982 21.1206C10.1456 21.1792 10.2115 21.2305 10.2481 21.2891C10.3067 21.3916 10.2188 21.4868 10.5045 21.5161L10.7755 21.7651C10.2555 21.7651 9.70615 21.7358 9.14951 21.6846L8.86387 22.0215C8.85654 22.0361 8.83457 22.0361 8.8126 22.0361C8.71006 22.0361 8.51963 21.9409 8.51963 21.8677L8.55625 21.626C8.41709 21.6113 8.27793 21.5894 8.13877 21.5674C7.80186 21.5234 7.45762 21.4648 7.1207 21.3916L6.57871 21.2598C7.23789 21.853 7.94102 22.4097 8.65879 22.8931C8.95176 23.0981 9.2667 23.2886 9.57432 23.4863L10.1603 23.8306C11.0758 24.314 11.5226 24.5776 12.4967 25.0024C13.1705 25.2954 13.859 25.5664 14.5621 25.8154C15.2652 26.0571 15.983 26.2842 16.7008 26.4893C17.4259 26.6943 18.1583 26.8848 18.898 27.0605C19.6378 27.2363 20.3849 27.3975 21.1319 27.5439C21.7179 27.6685 21.6886 27.6611 22.2672 27.771L22.8312 27.8809C23.0216 27.9102 23.212 27.9468 23.4024 27.9834L24.4571 28.1812C24.5523 28.1958 24.5963 28.2837 24.5963 28.3643C24.5963 28.4595 24.5377 28.5474 24.4425 28.5547L23.9005 28.5986L23.3585 28.6353C22.7799 28.6646 22.7506 28.6572 22.1866 28.6792L21.6007 28.6865C20.4508 28.6865 19.7696 28.6719 18.6563 28.5767C17.8727 28.5107 17.089 28.4082 16.3053 28.2837C15.5216 28.1519 14.7379 27.9834 13.9615 27.7783C13.1925 27.5806 12.4234 27.3315 11.669 27.0459C10.9073 26.7676 10.1676 26.4307 9.44248 26.0645C9.12754 25.896 9.22275 25.9399 8.90781 25.7788C8.23398 25.3979 7.97764 25.2661 7.34775 24.8193C6.53477 24.2627 5.76572 23.6475 5.04795 22.959C4.50596 22.439 4.00059 21.875 3.53184 21.2817L3.49521 21.5967C3.41465 22.3511 3.30478 23.0981 3.1876 23.8452C3.129 24.2188 3.06309 24.5923 2.99717 24.9658C2.79941 26.0352 2.90195 25.5005 2.66025 26.6357L2.53574 27.1924L2.33799 28.02L1.98643 29.3091C1.96445 29.3823 1.89121 29.4189 1.81797 29.4189ZM1.53965 7.16064L1.59824 7.08008L1.59092 7.04346L1.53232 7.10938L1.53965 7.16064ZM1.58359 7.60742L1.60557 7.57812V7.5708H1.59092L1.58359 7.58545V7.60742ZM1.95713 7.69531L2.06699 7.54883V7.52686L1.9498 7.65137L1.95713 7.69531ZM1.63486 8.10547L1.69346 8.03223L1.68613 7.94434L1.62754 8.01758L1.63486 8.10547ZM1.68613 8.69141L1.74473 8.61816L1.7374 8.53027L1.67881 8.60352L1.68613 8.69141ZM2.05234 16.4551C2.05967 16.4551 2.05967 16.4258 2.05967 16.3672V15.0488C2.04502 14.3457 2.05234 14.3384 2.03037 13.6719C1.96445 11.5552 1.94248 11.1157 1.78135 9.03564C1.75937 9.02832 1.7374 9.01367 1.70811 8.9917C1.78135 9.86328 1.84727 10.7422 1.89853 11.6138C1.9791 13.1665 1.96445 12.793 2.01572 14.3604C2.03037 15.0415 2.03769 15.0488 2.03769 15.7373C2.04502 16.1841 2.03037 16.4551 2.05234 16.4551ZM2.03037 8.25928L2.12559 8.13477V8.10547L2.02305 8.20801L2.03037 8.25928ZM2.21348 10.105L2.27939 10.0537L2.18418 8.79395L2.11094 8.85986L2.13291 9.09424L2.21348 10.105ZM2.41855 19.4653C2.42588 19.4653 2.42588 19.436 2.42588 19.3848L2.44785 18.7915L2.42588 18.7695L2.41855 19.4653ZM2.47715 17.605L2.48447 17.3706L2.4918 15.9863C2.4918 13.9795 2.44053 12.3389 2.28672 10.1929L2.2208 10.1709C2.36728 12.3096 2.42588 13.8037 2.44785 15.9863L2.45518 16.6748L2.44785 17.5903L2.47715 17.605ZM2.57236 9.83398L2.63828 9.78271C2.63096 9.24072 2.62363 8.72803 2.60898 8.17139L2.51377 8.36182C2.54307 8.86719 2.55039 9.34326 2.57236 9.83398ZM2.59434 10.5444L2.65293 10.5151L2.64561 10.2075C2.62363 10.1929 2.60898 10.1782 2.57969 10.1782L2.59434 10.5444ZM2.80674 16.1108V15.188L2.79941 14.6973C2.79209 14.0161 2.79209 14.0234 2.77012 13.313C2.75547 12.7783 2.77012 12.8442 2.7335 12.2729C2.69687 11.3794 2.69687 11.5625 2.66025 10.7495L2.60898 10.7788L2.63096 11.2329C2.66758 11.9141 2.64561 11.5625 2.68955 12.2729C2.69687 12.3901 2.7042 12.5073 2.7042 12.6172C2.7335 13.3569 2.75547 13.335 2.75547 14.0015C2.77744 14.6753 2.79209 14.7046 2.79209 15.3931L2.79941 16.0303C2.79941 16.0815 2.79941 16.1108 2.80674 16.1108ZM2.90195 10.3833L2.97519 10.354L2.96787 10.2954L2.90195 10.3101V10.3833ZM2.92393 10.7495L2.99717 10.7129L2.98984 10.5884L2.9166 10.6177L2.92393 10.7495ZM3.01914 21.1133L3.04844 20.5786L3.03379 20.5054C3.02646 20.6812 3.02646 20.8569 3.01182 21.0327C3.01182 21.084 3.01182 21.1133 3.01914 21.1133ZM3.04111 20.4028C3.04111 20.3735 3.05576 20.3369 3.06309 20.3076L3.09238 19.6997L3.09971 19.4727L3.07773 19.4434L3.04111 20.4028ZM3.15098 17.9346L3.16562 16.5649C3.16562 14.7485 3.14365 13.4155 3.04111 11.4819C3.02646 11.438 3.01182 11.394 3.00449 11.3867L3.03379 11.3501L3.01914 11.1304L2.95322 11.167C3.07041 13.2324 3.09971 14.6313 3.11436 16.5649L3.10703 17.9199L3.15098 17.9346ZM8.68809 20.9155L8.70273 20.8496C7.6334 20.7178 6.57139 20.5273 5.53135 20.2051L5.57529 20.2563C6.61533 20.6006 7.68467 20.791 8.68809 20.9155ZM8.76865 20.5786L8.77598 20.5347C8.40977 20.4907 8.03623 20.4395 7.67002 20.3809L7.06943 20.271C6.879 20.2344 6.82041 20.2124 6.76182 20.2124L6.79844 20.2271L7.06943 20.293L7.66269 20.4102C8.02891 20.4761 8.39512 20.5273 8.76865 20.5786ZM8.84189 20.2637L8.85654 20.1978C8.39512 20.1392 7.93369 20.0732 7.47959 19.9927C7.08408 19.9194 6.70322 19.8389 6.32236 19.7437C5.87559 19.6265 5.9708 19.6631 5.49473 19.502L5.45811 19.4946C5.45811 19.502 5.46543 19.5093 5.4874 19.5166L5.74375 19.6045C6.4835 19.8315 6.6373 19.8901 7.46494 20.0439C7.83848 20.1172 8.33652 20.1978 8.84189 20.2637ZM8.95176 19.8462C8.95176 19.8315 8.95908 19.8096 8.96641 19.7949L8.8126 19.7729C8.42441 19.729 8.03623 19.6777 7.65537 19.6118L7.08408 19.5093L6.82773 19.4507H6.79844L6.82773 19.4653C6.9083 19.4873 6.99619 19.5093 7.08408 19.5239L7.3624 19.5898L7.64805 19.6411C8.02891 19.7144 8.41709 19.7803 8.80527 19.8315L8.95176 19.8462ZM10.7096 18.689C10.7169 18.689 10.7242 18.6816 10.7315 18.6597C11.7423 16.6382 11.3614 17.3926 12.6285 14.9829C12.7237 14.7998 12.8189 14.6094 12.9215 14.4263C13.1412 14.0161 13.317 13.8037 13.4488 13.6938C13.566 13.5986 13.6393 13.5767 13.6979 13.5767H13.7198C13.7784 13.584 13.815 13.6206 13.859 13.6279L13.8883 13.6353L13.9249 13.6279C13.9542 13.6133 13.9835 13.5913 14.0201 13.5547H14.0934L14.0787 13.5474C13.9688 13.4741 13.8663 13.3936 13.7638 13.3203L13.5807 13.4888C13.4928 13.5693 13.4049 13.6572 13.3243 13.7451C13.1559 13.9282 13.0021 14.1333 12.8556 14.3896L12.5626 14.9536C12.1891 15.686 12.0572 15.9131 11.691 16.6675C11.5006 17.0483 11.3102 17.4292 11.1271 17.8101C10.8707 18.3301 10.9952 18.0737 10.7242 18.6523L10.7096 18.689ZM11.442 16.4844L11.464 16.4478C11.7643 15.8911 11.6178 16.1694 11.8961 15.6201L12.4967 14.4849C12.6578 14.1846 12.8629 13.9136 13.0899 13.6719C13.2511 13.4961 13.4195 13.3423 13.588 13.1958L13.4854 13.1152C13.3902 13.2031 13.3097 13.291 13.2291 13.3789C13.1339 13.4814 13.0387 13.5913 12.9508 13.7012C12.775 13.9209 12.6139 14.1626 12.4527 14.4629C12.255 14.8438 12.0646 15.2246 11.8741 15.6055C11.6104 16.1182 11.7276 15.8911 11.4566 16.4478L11.442 16.4844ZM10.4386 17.7222C10.4459 17.7222 10.4532 17.7148 10.4679 17.6929C11.3175 15.9937 11.0831 16.521 12.2184 14.3164C12.3502 14.0674 12.4967 13.8037 12.6432 13.5693C12.7896 13.335 12.9508 13.1226 13.1046 12.9541L13.1778 12.8809L13.0753 12.8003L13.0387 12.8662C12.9068 13.0054 12.8775 13.0713 12.8409 13.1299C12.8116 13.1885 12.775 13.2471 12.6651 13.4082C12.4161 13.7817 12.2184 14.1699 12.0206 14.5508L11.4347 15.6934L10.8634 16.8433C10.5924 17.3999 10.7315 17.1289 10.4532 17.6855L10.4386 17.7222ZM10.6949 16.2793C10.7022 16.2793 10.7096 16.272 10.7242 16.25C11.4347 14.9097 11.0904 15.5615 11.7569 14.2798C11.9327 13.9502 12.1158 13.606 12.3429 13.2544C12.4894 13.042 12.6505 12.8223 12.8482 12.6172L12.7896 12.5732C12.5992 12.7856 12.4308 13.0054 12.2916 13.2251C12.0646 13.5767 11.8814 13.9282 11.713 14.2578L11.1271 15.4004L10.6949 16.2793ZM11.8521 10.7275L11.8229 10.6909C11.4347 10.2148 11.4859 10.3101 11.1271 9.84131C10.8927 9.54834 10.878 9.54834 10.6583 9.24072C10.5045 9.04297 10.3507 8.84521 10.2042 8.63281L9.83799 8.12012C9.80137 8.0542 9.75742 7.99561 9.71348 7.92969L9.44248 7.51953L9.03965 6.86768C9.00303 6.79443 8.95908 6.72119 8.91514 6.64795L8.68076 6.22314L8.65879 6.1792C8.64414 6.2085 8.63682 6.23779 8.62949 6.26709C9.07627 7.10205 9.59629 7.90771 10.1603 8.66943C10.3067 8.87451 10.4679 9.07227 10.6217 9.27002C10.7022 9.37256 10.7755 9.4751 10.8561 9.57031L11.3395 10.1489L11.8155 10.6982L11.8521 10.7275ZM10.4679 9.7168L10.4459 9.68018C10.2115 9.36523 10.2042 9.37256 9.99912 9.08691C9.23008 7.98828 9.47178 8.41309 8.74668 7.19727L8.66611 7.05811C8.52695 6.82373 8.59287 6.93359 8.46103 6.69922V6.70654L8.43174 6.77246L8.61484 7.0874C8.64414 7.13867 8.66611 7.18262 8.70273 7.23389C9.42051 8.39844 9.12754 7.94434 9.97715 9.10156C10.0577 9.2041 10.1383 9.30664 10.2115 9.40918C10.3653 9.60693 10.4386 9.7168 10.4679 9.7168ZM9.09092 19.3555C9.19346 18.9966 9.30332 18.645 9.42783 18.2935C9.88926 16.9678 10.4532 15.686 11.0904 14.4482L11.3907 13.8916C11.4933 13.7012 11.6031 13.5034 11.735 13.3057C11.8595 13.1006 12.006 12.8955 12.1671 12.6904C12.2696 12.5732 12.3795 12.4487 12.4967 12.3315C12.3722 12.229 12.2477 12.1191 12.1231 12.0093C11.8082 11.7383 11.5079 11.4526 11.2076 11.1597L10.7682 10.7129C10.6949 10.6323 10.6217 10.5591 10.5558 10.4785C9.99912 9.86328 10.2628 10.1636 9.72812 9.51904C9.48643 9.19678 9.40586 9.11621 9.14951 8.76465L8.79062 8.22998C8.58555 7.91504 8.38779 7.59277 8.20469 7.26318C8.10947 7.45361 7.99961 7.63672 7.89707 7.81982C7.75059 8.0542 7.6041 8.28857 7.43564 8.5083C6.79111 9.40918 6.0001 10.1855 5.11387 10.8447C4.68906 11.167 4.24228 11.4526 3.77353 11.709C3.78818 11.98 3.80283 12.2437 3.81016 12.5073C3.8541 13.7158 3.84678 13.6133 3.86875 14.7852V15.1147L3.86143 15.9204C3.8541 16.5137 3.8541 16.4844 3.83213 17.063C3.8248 17.4438 3.80283 17.8174 3.78818 18.1982C3.87607 18.2349 3.96396 18.2715 4.05918 18.3008C4.34482 18.4033 4.63047 18.4912 4.91611 18.5718C5.20176 18.6597 5.4874 18.7256 5.78037 18.7988C6.06602 18.8647 6.35898 18.9233 6.65928 18.9746C6.95225 19.0332 7.25254 19.0845 7.55283 19.1284C7.85312 19.1797 8.15342 19.2236 8.46103 19.2676L9.09092 19.3555ZM11.2223 25.5737L11.149 25.5371C10.9513 25.4492 10.7535 25.3467 10.5558 25.2515C10.4532 25.1929 10.3434 25.1416 10.2408 25.0903C9.60361 24.7534 9.90391 24.9219 9.31064 24.5703C8.49033 24.0942 7.70664 23.5596 6.96689 22.9736C6.89365 22.915 6.82041 22.8491 6.73984 22.7905C6.4542 22.5635 6.37363 22.4609 6.11728 22.2192C5.85361 21.9409 5.59727 21.6772 5.36289 21.3843C5.17246 21.1646 5.18711 21.1719 5.01133 20.9521L4.68174 20.5347L4.43271 20.4028L4.49863 20.4834C4.5499 20.5493 4.60117 20.6226 4.65977 20.6885L4.97471 21.0693C5.02598 21.1353 5.07725 21.2012 5.13584 21.2598C5.23838 21.377 5.34824 21.4941 5.45078 21.6187C5.55332 21.7358 5.66318 21.8457 5.78037 21.9629L5.94883 22.1387L6.12461 22.3145L6.50547 22.6587L6.71787 22.8345C6.78379 22.8931 6.85703 22.9517 6.9376 23.0103C7.67734 23.5962 8.46836 24.1235 9.296 24.5996C9.91123 24.9512 9.80869 24.8999 10.5484 25.2661C10.7462 25.3613 10.9439 25.4565 11.149 25.5444L11.2223 25.5737ZM4.96738 20.0439C4.96738 20.0366 4.96738 20.022 4.96006 20.0146L4.55723 19.8608C4.55723 19.8682 4.56455 19.8755 4.58652 19.8828C4.8209 19.978 4.7623 19.9634 4.96738 20.0439ZM3.74424 11.2549C4.02256 11.0718 4.29355 10.8813 4.55723 10.6909L4.95273 10.3906C5.08457 10.2881 5.21641 10.1855 5.34824 10.0757C5.546 9.91455 5.53867 9.90723 5.7291 9.76074L5.92686 9.58496H5.91953L5.52402 9.8999L4.93076 10.354C4.85752 10.3979 4.7916 10.4492 4.72568 10.5005C4.32285 10.7935 4.1251 10.9253 3.74424 11.1816V11.2549ZM3.71494 10.7715C4.21299 10.4419 4.69639 10.083 5.16514 9.70215L5.35557 9.54834C5.9415 9.03564 5.68516 9.27002 6.27109 8.73535L6.4542 8.55957L6.44687 8.55225L6.4249 8.57422C5.62656 9.2627 5.94883 9.00635 4.92344 9.82666C4.85019 9.87793 4.76963 9.93652 4.68906 10.0024C4.52793 10.127 4.34482 10.2515 4.16904 10.376L3.89805 10.5664L3.70762 10.6982C3.71494 10.7202 3.71494 10.7495 3.71494 10.7715ZM3.68564 10.354C3.79551 10.2954 3.90537 10.2295 4.02256 10.1489C4.14707 10.0537 4.27891 9.9585 4.40342 9.85596C4.53525 9.76074 4.65977 9.66553 4.78428 9.56299C4.97471 9.40918 4.98203 9.40918 5.15781 9.25537L5.34824 9.08691L5.31894 9.10156C5.13584 9.25537 5.12119 9.27002 4.96006 9.38721C4.69639 9.59961 4.65244 9.62891 4.38144 9.82666C4.25693 9.92188 4.11777 10.0098 3.99326 10.105C3.89072 10.1782 3.78818 10.2368 3.67832 10.2881C3.68564 10.3101 3.68564 10.332 3.68564 10.354ZM3.65635 10.0024L3.67832 9.99512C4.19102 9.62891 4.69639 9.24072 5.17978 8.83057L5.53135 8.51562L5.88291 8.19336L6.05137 8.03223L6.39561 7.68799L6.38828 7.68066L6.36631 7.70264L6.20518 7.84912C6.02939 8.01758 6.03672 7.99561 5.86094 8.17139C5.73643 8.27393 5.62656 8.38379 5.50205 8.479C5.38486 8.58154 5.26035 8.69141 5.14316 8.78662C4.65977 9.18945 4.16172 9.56299 3.64902 9.92188C3.65635 9.95117 3.65635 9.98047 3.65635 10.0024ZM11.2442 26.4087C11.2442 26.4014 11.2149 26.3867 11.1637 26.3647C10.9586 26.2695 10.7535 26.1816 10.5484 26.0791C10.3287 25.9692 10.109 25.8667 9.88926 25.7495C8.5709 25.0317 7.91172 24.6362 6.78379 23.7866C6.10264 23.2593 5.45811 22.6953 4.85752 22.0801C4.62314 21.8457 4.74033 21.9702 4.52061 21.7358C4.48398 21.6919 4.44736 21.6553 4.41807 21.6113L3.98594 21.1279L3.59775 20.6445L3.59043 20.7397C3.97861 21.2231 3.95664 21.2085 4.37412 21.6626C4.40342 21.7065 4.44004 21.7432 4.47666 21.7871C4.70371 21.9995 4.58652 21.8823 4.81357 22.1313C5.42148 22.7466 6.06602 23.3105 6.74717 23.8232C7.53818 24.4238 8.36582 24.9585 9.23008 25.4346C9.92588 25.8008 9.87461 25.7715 10.5411 26.1011L11.1563 26.3794L11.2442 26.4087ZM14.3644 27.0972L14.2838 27.0679C13.6466 26.8628 13.6026 26.8555 12.9728 26.6284C12.8556 26.5918 12.7457 26.5479 12.6358 26.5039C11.5299 26.0718 10.7975 25.7495 9.68418 25.1562C9.2667 24.9219 8.77598 24.6362 8.27061 24.314L7.88975 24.0503C7.82383 24.0137 7.75791 23.9624 7.69199 23.9185L7.59678 23.8525C7.27451 23.6401 7.02549 23.4424 6.73252 23.2007C6.21982 22.8052 5.74375 22.3584 5.3043 21.9409L4.99668 21.6187L4.84287 21.4648L4.3082 20.8569L4.19834 20.7178C4.00791 20.4834 3.86875 20.3076 3.77353 20.1611L3.66367 19.978C3.64902 20.0806 3.6417 20.1758 3.63437 20.2783C4.00059 20.7031 4.00791 20.6372 4.24228 20.9448C4.28623 21.0034 4.33018 21.0474 4.3668 21.084L4.71836 21.4355C4.75498 21.4795 4.79893 21.5161 4.85019 21.5674L5.02598 21.7505C6.38096 23.1421 7.96299 24.2847 9.66221 25.2002C10.5118 25.6616 11.3907 26.0571 12.2843 26.4087C12.6139 26.5332 12.6285 26.5552 12.9654 26.6577L13.6466 26.8848L14.2838 27.0825C14.3277 27.0972 14.357 27.0972 14.3644 27.0972ZM16.1515 26.8848C16.1515 26.8774 16.1222 26.8701 16.0709 26.8555C15.8585 26.8115 15.6461 26.7529 15.441 26.6943C15.3238 26.665 15.214 26.6357 15.0968 26.5991C14.7599 26.5039 14.7452 26.5112 14.4229 26.4014C13.317 26.0571 12.4454 25.7349 11.4713 25.2881C9.77207 24.519 8.16074 23.5449 6.74717 22.3511L6.33701 21.9922L5.80234 21.4722C5.69248 21.3403 5.58994 21.2305 5.50205 21.1279C5.41416 21.0254 5.33359 20.9375 5.275 20.8496L5.23838 20.791L5.12852 20.7471C5.13584 20.7544 5.13584 20.7617 5.14316 20.7617C5.23105 20.8789 5.31894 20.9961 5.42148 21.106L5.70713 21.4355C5.86094 21.604 5.86094 21.604 6.01475 21.7578C6.06602 21.8091 6.11728 21.8677 6.17588 21.9189C6.22715 21.9775 6.27842 22.0288 6.33701 22.0801C6.4542 22.1899 6.57871 22.2925 6.70322 22.4023C8.12412 23.6035 9.74277 24.5776 11.4493 25.3394C12.3062 25.7202 13.1852 26.0498 14.0787 26.3281C14.4156 26.4307 14.4303 26.4233 14.7525 26.5332C15.1041 26.6357 15.0821 26.6284 15.4337 26.7163C15.6461 26.7676 15.8512 26.8262 16.0636 26.8701L16.1515 26.8848ZM19.5019 21.6479C19.4652 21.6479 19.4213 21.6406 19.37 21.6333C19.6776 20.7031 19.5385 21.1646 19.8388 20.3076C20.0219 19.9048 19.9633 19.9927 20.1391 19.5752C20.3808 19.0259 20.3368 19.1431 20.5712 18.6304C20.725 18.3008 20.7104 18.3154 20.8935 17.9785C21.0546 17.6562 21.0546 17.6489 21.2304 17.3413C21.3476 17.1362 21.4135 17.0483 21.4135 17.0044H21.4062L21.3842 17.041C21.2157 17.3193 21.1938 17.356 21.0326 17.6489C20.8495 17.9858 20.8422 17.9785 20.6957 18.2861C20.5272 18.6377 20.5199 18.623 20.3734 18.938C20.1537 19.4141 20.1684 19.3262 19.9706 19.8462C19.7069 20.4688 19.7362 20.4102 19.5092 21.0254L19.3041 21.626C19.2821 21.6187 19.1649 21.5088 19.143 21.5015L19.2089 21.0474C19.2748 20.8496 19.2968 20.7837 19.3114 20.7104C19.3261 20.6372 19.348 20.564 19.4213 20.3735C19.7655 19.458 20.1757 18.5645 20.6298 17.6929L20.7982 17.3633C20.974 17.0483 20.974 17.0557 21.1571 16.7188L21.3183 16.4551L21.3109 16.4185C21.3109 16.4185 21.3036 16.4185 21.3036 16.4111C21.1205 16.7188 21.1059 16.7188 20.9447 17.0264C20.747 17.3633 20.7543 17.3633 20.5858 17.6709L20.3954 18.0225L20.1977 18.418C20.1684 18.4912 20.1317 18.5571 20.0951 18.6304L19.7948 19.2969C19.7216 19.4507 19.663 19.6045 19.5971 19.7583C19.5385 19.9048 19.4726 20.0513 19.4213 20.1978L19.2602 20.6152C19.2089 20.7471 19.1649 20.8716 19.1283 20.9888C18.9818 21.4136 18.9086 21.5381 18.8646 21.5381C18.85 21.5381 18.8354 21.5234 18.828 21.5015C18.8061 21.4502 18.7987 21.3477 18.7694 21.3477C18.7621 21.3477 18.7475 21.3696 18.7255 21.4355L18.7182 21.377C18.6962 21.4209 18.6303 21.4429 18.5644 21.4429C18.4838 21.4429 18.4032 21.4062 18.3886 21.3477C18.352 21.1279 18.3153 20.9082 18.286 20.6885C18.2348 20.6958 18.1908 20.7397 18.1249 20.9375L17.81 21.2305C17.9198 20.8203 18.0443 20.4102 18.1908 19.9927C18.1835 19.9854 18.1835 19.978 18.1835 19.9707C18.1542 19.7363 18.1249 19.502 18.0883 19.2603C17.9784 18.3154 17.8686 17.3706 17.7807 16.4258C17.6049 14.5435 17.4657 12.6685 17.3412 10.7861C17.268 9.6582 17.2021 8.53027 17.1508 7.39502V7.3877C17.1508 7.27783 17.2753 7.17529 17.4511 7.12402C17.5536 8.12744 17.6342 9.13818 17.7147 10.1416C17.7733 10.9985 17.766 11.0205 17.8319 11.8848C17.8759 12.7856 17.8539 12.2803 17.9052 13.1592C17.9052 13.1958 17.9052 13.2104 17.9125 13.2104V13.1592C17.8686 11.9946 17.8759 12.1558 17.8173 11.0132C17.7147 9.43115 17.6635 8.63281 17.5097 7.10938C17.5316 7.10938 17.6781 7.16797 17.7074 7.16797H17.7147L17.8466 7.70264C17.8905 8.18604 17.9125 8.04688 17.9564 8.53027C18.0517 9.69482 18.1396 10.8594 18.2055 12.0239L18.2494 12.9028C18.308 14.1187 18.2934 13.5767 18.3446 15.0562C18.3446 15.0928 18.3446 15.1074 18.352 15.1074V15.0562C18.33 13.7524 18.3446 14.3384 18.2934 12.9028C18.2787 12.6099 18.2714 12.3169 18.2494 12.0239L18.2274 11.5479L18.1249 9.87061L18.037 8.7207C18.0004 8.35449 17.9784 8.01025 17.9491 7.72461C17.9271 7.49023 17.9198 7.3291 17.9198 7.21191C17.9198 7.05811 17.9345 7.00684 17.9638 7.00684C18.0077 7.00684 18.081 7.16797 18.1176 7.16797C18.1249 7.16797 18.1322 7.15332 18.1322 7.1167L18.1249 7.05078L18.2641 7.3584C18.352 8.30322 18.3007 8.93311 18.3739 9.87793C18.4179 10.4639 18.4545 11.0498 18.4911 11.6357C18.5497 12.5 18.5204 12.0825 18.5644 12.9175L18.5717 12.9688C18.579 12.9688 18.579 12.9541 18.579 12.9175L18.5424 12.0679C18.4984 11.2109 18.4765 10.7861 18.4179 9.87793C18.3959 9.61426 18.3959 9.34326 18.3959 9.07959L18.4032 8.0835C18.4032 7.74658 18.3959 7.40967 18.3593 7.06543L18.557 7.18994C18.579 7.40234 18.5863 7.59277 18.5937 7.79053C18.601 7.98096 18.601 8.16406 18.601 8.34717C18.6083 8.7207 18.601 9.08691 18.6376 9.50439C18.7255 10.6763 18.7987 11.8481 18.85 13.0273C18.8793 13.6133 18.9013 14.1992 18.9232 14.7852C18.9306 14.9316 18.9379 15.0781 18.9379 15.2246C18.9599 15.8105 18.9525 15.5176 18.9599 16.0742L18.9672 16.1255C18.9745 16.1255 18.9745 16.1108 18.9745 16.0742L18.9599 15.2246C18.9599 15.0781 18.9599 14.9316 18.9525 14.7852C18.9452 14.1992 18.9232 13.606 18.9013 13.02C18.8573 11.8481 18.7841 10.6689 18.6962 9.49707C18.6742 9.16748 18.6596 8.90381 18.6522 8.68408C18.6449 8.46436 18.6449 8.2959 18.6449 8.16406C18.6596 7.90039 18.6962 7.79053 18.7328 7.73193C18.7987 7.62939 18.8866 7.70264 18.8866 7.46094L18.8793 7.31445L19.0404 6.86035C19.2235 8.0835 19.348 9.4165 19.4286 10.6543C19.4945 11.6211 19.5238 12.5952 19.5238 13.5693C19.5238 14.5142 19.4945 15.459 19.4286 16.4038C19.4066 16.7114 19.3847 17.019 19.3554 17.3267C19.414 17.2095 19.4799 17.0996 19.5385 16.9897C19.641 16.7993 19.7509 16.6235 19.8607 16.4404C20.0219 16.1841 20.0219 16.1768 20.1977 15.9131C20.4687 15.4956 20.7616 15.0928 21.0692 14.7046V14.5288C21.0692 14.4775 21.223 14.4116 21.3183 14.397C21.4501 14.2358 21.5893 14.082 21.7284 13.9209C21.9994 13.606 22.2997 13.313 22.6 13.02C22.7465 12.8809 22.9076 12.7417 23.0614 12.6025C23.5082 12.207 23.2958 12.3975 23.7792 12.002L24.0355 11.8188C24.3285 11.6064 24.2406 11.665 24.5482 11.46L25.0316 11.1523L25.0609 11.145C25.1488 11.145 25.2733 11.2842 25.2733 11.3647C25.2733 11.3794 25.2733 11.394 25.266 11.4014L24.9584 11.8774L24.8705 12.002C24.6508 12.3389 24.6801 12.3315 24.4604 12.6318L23.662 13.8916C23.4569 14.2358 23.2445 14.5654 23.0468 14.9023C22.871 15.2026 22.6952 15.4956 22.5268 15.7959L22.5487 15.8325C22.7025 16.0156 22.8417 16.2061 22.9882 16.3965C23.2738 16.7773 23.5521 17.1582 23.8231 17.5317C24.1015 17.9053 24.3651 18.2861 24.6435 18.6597L25.6103 20.0146L25.6176 20.0439C25.6176 20.1025 25.5517 20.2124 25.4418 20.3223C25.1122 19.9414 24.7973 19.5532 24.4896 19.1504C24.226 18.7988 24.3578 18.9893 24.1015 18.623L23.977 18.4399C23.8451 18.2495 23.8451 18.2422 23.7279 18.0811C23.6547 17.9639 23.6254 17.8906 23.5961 17.8906L23.6107 17.9199C23.7206 18.103 23.7133 18.1104 23.8305 18.2715C23.955 18.4619 23.9477 18.4766 24.0722 18.6377C24.6142 19.4287 24.8192 19.6997 25.3979 20.3662C25.3832 20.3809 25.244 20.4541 25.2221 20.4688L24.9877 20.3076C24.8266 20.1245 24.8485 20.1978 24.6874 20.0073C24.3139 19.5459 23.9623 19.0698 23.6254 18.5791C23.5888 18.5132 23.5448 18.4546 23.5009 18.396C23.1493 17.8613 23.3397 18.1396 23.0175 17.6416C22.8783 17.3999 22.9442 17.5098 22.7978 17.2754L22.7831 17.2534L22.7904 17.2827C23.1054 17.8467 22.9369 17.5537 23.2299 18.0444C23.2665 18.103 23.3031 18.1689 23.3471 18.2275C23.4716 18.4326 23.4569 18.4106 23.5888 18.6084L23.7206 18.8062C23.7646 18.8794 23.8231 18.9526 23.8744 19.0259C23.977 19.1797 24.1015 19.3408 24.2187 19.502C24.2772 19.5825 24.3358 19.6631 24.4018 19.7437L24.5775 19.9707L24.8998 20.3662C25.039 20.5347 25.0829 20.6152 25.0829 20.6592C25.0829 20.6885 25.0683 20.7031 25.039 20.7031H24.9438C24.9218 20.7031 24.9071 20.7104 24.9071 20.7178C24.9071 20.7324 24.9145 20.7471 24.9364 20.769L24.746 20.7178C24.4311 20.3442 24.3065 20.0293 24.0136 19.6411C23.8305 19.3994 23.6474 19.1577 23.4789 18.9087C23.3397 18.7183 23.3324 18.7183 23.2226 18.5425C23.142 18.418 23.1054 18.3447 23.0834 18.3447L23.098 18.374L23.3324 18.7402C23.5888 19.1284 23.7133 19.3262 23.977 19.6704C24.0502 19.7656 24.1161 19.8682 24.1747 19.9707L24.5263 20.6152C24.5922 20.7178 24.6654 20.813 24.746 20.9082L24.5556 20.9741C24.4896 20.8862 24.4237 20.8057 24.3725 20.7251C24.3139 20.6372 24.2626 20.5566 24.2187 20.4688C24.1161 20.3076 24.0209 20.1318 23.8891 19.9634C23.5155 19.48 23.164 18.9746 22.8344 18.4619L22.351 17.6855L22.2338 17.4878C22.1166 17.2827 22.1093 17.29 22.0214 17.0996L21.9994 17.0776V17.085L22.1093 17.2974C22.2191 17.5171 22.2265 17.5171 22.329 17.7002C22.4755 17.9639 22.6293 18.2275 22.7904 18.4912C23.12 19.0112 23.4643 19.5166 23.8378 20C23.9477 20.1392 24.0282 20.249 24.0868 20.3442C24.1527 20.4395 24.1967 20.52 24.226 20.5786C24.2699 20.6592 24.2846 20.7251 24.2846 20.769C24.2846 20.791 24.2772 20.813 24.2699 20.835C24.2479 20.9009 24.204 20.9229 24.204 20.9814C24.204 21.0107 24.2187 21.0474 24.2699 21.1133V21.4209C23.7865 20.9668 23.3324 20.4175 22.9442 19.8755C22.4022 19.1284 21.9555 18.3081 21.6259 17.4438C21.538 17.6196 21.4428 17.7881 21.3622 17.9565C21.0912 18.5059 21.1059 18.5132 20.8495 18.9966C20.454 19.8389 20.0878 20.6885 19.7436 21.5454C19.7143 21.6113 19.6264 21.6479 19.5019 21.6479ZM18.8646 20.7178C19.0844 20.1831 19.3188 19.7729 19.5751 19.1797C19.7216 18.8354 19.6557 18.96 19.8827 18.4985C20.0512 18.147 20.0292 18.1616 20.205 17.832C20.3661 17.5098 20.3734 17.5024 20.5492 17.1655L20.7396 16.8213H20.7323L20.7104 16.8579C20.5199 17.1802 20.5272 17.1655 20.3588 17.4878C20.1757 17.832 20.161 17.832 20.0146 18.147L19.8461 18.4839C19.8168 18.5425 19.7875 18.5938 19.7655 18.6523C19.5385 19.1284 19.5238 19.1797 19.2748 19.707C19.2235 19.7949 19.1796 19.8828 19.1356 19.9707C19.0844 20.0513 19.0404 20.1465 18.9965 20.2344L18.9379 20.3442L18.872 20.7031L18.8646 20.7178ZM19.0624 19.6191L19.1869 19.3408C19.6483 18.2568 20.1024 17.334 20.7104 16.3086L20.9081 15.9863C20.9813 15.8545 21.0619 15.73 21.1498 15.5981L21.1352 15.5469C20.4101 16.6455 19.663 18.0225 19.1063 19.3774L19.0624 19.6191ZM21.6918 14.7632C21.787 14.646 21.8236 14.5581 21.9262 14.4336L21.9481 14.3896L21.9188 14.4263C21.8456 14.5142 21.7797 14.6167 21.7138 14.7046L21.6845 14.7485L21.6918 14.7632Z" fill="#313131"/>
<defs>
<filter id="filter0_d_1635_15067" x="2" y="5" width="25" height="25" filterUnits="userSpaceOnUse" color-interpolation-filters="sRGB">
<feFlood flood-opacity="0" result="BackgroundImageFix"/>
<feColorMatrix in="SourceAlpha" type="matrix" values="0 0 0 0 0 0 0 0 0 0 0 0 0 0 0 0 0 0 127 0" result="hardAlpha"/>
<feOffset dy="1"/>
<feGaussianBlur stdDeviation="1"/>
<feComposite in2="hardAlpha" operator="out"/>
<feColorMatrix type="matrix" values="0 0 0 0 0 0 0 0 0 0 0 0 0 0 0 0 0 0 0.25 0"/>
<feBlend mode="normal" in2="BackgroundImageFix" result="effect1_dropShadow_1635_15067"/>
<feBlend mode="normal" in="SourceGraphic" in2="effect1_dropShadow_1635_15067" result="shape"/>
</filter>
</defs>
</svg>
